<svg width="1024" height="1024" viewBox="0 0 1024 1024" xmlns="http://www.w3.org/2000/svg" role="img" aria-labelledby="title desc">
  <title>InfoFácil logo</title>
  <desc>Rounded blue square with a book, mouse cursor, and wireless signal representing accessible digital learning.</desc>
  <defs>
    <linearGradient id="bg" x1="0" y1="0" x2="1" y2="1">
      <stop offset="0%" stop-color="#1D4ED8"/>
      <stop offset="55%" stop-color="#2563EB"/>
      <stop offset="100%" stop-color="#0EA5E9"/>
    </linearGradient>
    <linearGradient id="accent" x1="0" y1="0" x2="1" y2="1">
      <stop offset="0%" stop-color="#22C55E"/>
      <stop offset="100%" stop-color="#10B981"/>
    </linearGradient>
    <linearGradient id="page" x1="0" y1="0" x2="0" y2="1">
      <stop offset="0%" stop-color="#FFFFFF"/>
      <stop offset="100%" stop-color="#E0F2FE"/>
    </linearGradient>
    <filter id="shadow" x="-20%" y="-20%" width="140%" height="140%">
      <feDropShadow dx="0" dy="18" stdDeviation="24" flood-color="#0F172A" flood-opacity="0.18"/>
    </filter>
  </defs>

  <rect x="64" y="64" width="896" height="896" rx="224" fill="url(#bg)"/>

  <circle cx="788" cy="256" r="92" fill="#FFFFFF" fill-opacity="0.10"/>
  <circle cx="236" cy="824" r="120" fill="#FFFFFF" fill-opacity="0.08"/>

  <g filter="url(#shadow)">
    <path d="M292 282C292 248.863 318.863 222 352 222H566C589.677 222 612.384 231.406 629.13 248.149L716.851 335.87C733.594 352.616 743 375.323 743 399V652C743 685.137 716.137 712 683 712H352C318.863 712 292 685.137 292 652V282Z" fill="url(#page)"/>
    <path d="M566 222V320C566 353.137 592.863 380 626 380H743" fill="#BFDBFE" fill-opacity="0.7"/>
    <path d="M566 222V320C566 353.137 592.863 380 626 380H743" stroke="#93C5FD" stroke-width="24" stroke-linejoin="round"/>
    <rect x="352" y="426" width="220" height="34" rx="17" fill="#BFDBFE"/>
    <rect x="352" y="486" width="300" height="34" rx="17" fill="#DBEAFE"/>
    <rect x="352" y="546" width="248" height="34" rx="17" fill="#DBEAFE"/>
  </g>

  <g filter="url(#shadow)">
    <path d="M460 744L546 524C554.226 502.962 582.892 501.035 593.796 520.819L634.878 595.35C639.204 603.2 648.287 607.008 657.026 604.604L743.942 580.703C767.524 574.219 786.177 600.131 773.027 620.779L635 837L559 780L510 846L460 744Z" fill="#FFFFFF"/>
    <path d="M615 804L669 720" stroke="url(#accent)" stroke-width="34" stroke-linecap="round"/>
    <circle cx="615" cy="804" r="28" fill="url(#accent)"/>
  </g>

  <g fill="none" stroke="#A7F3D0" stroke-linecap="round">
    <path d="M730 314C764 280 820 280 854 314" stroke-width="26"/>
    <path d="M705 270C753 222 831 222 879 270" stroke-width="20" opacity="0.9"/>
    <path d="M780 352C798 334 826 334 844 352" stroke-width="18" opacity="0.95"/>
  </g>

  <circle cx="786" cy="357" r="18" fill="#D1FAE5"/>
</svg>
